HIERARCHY
ROOT pelvis
{
  OFFSET 0 100 0
  CHANNELS 6 Xposition Yposition Zposition Zrotation Xrotation Yrotation
  JOINT pelvis_right_femur
  {
    OFFSET -10.78128 -3.44521 -0.5502486
    CHANNELS 3 Zrotation Xrotation Yrotation
    JOINT right_femur_tibia
    {
      OFFSET -0.8047443 -44.0398 -0.1307829
      CHANNELS 3 Zrotation Xrotation Yrotation
      JOINT right_tibia_foot
      {
        OFFSET 3.006224 -47.83518 -5
        CHANNELS 3 Zrotation Xrotation Yrotation
        End Site
        {
          OFFSET 0 -5 15
        }
      }
    }
  }
  JOINT pelvis_left_femur
  {
    OFFSET 10.78128 -3.44521 -0.5502486
    CHANNELS 3 Zrotation Xrotation Yrotation
    JOINT left_femur_tibia
    {
      OFFSET 0.8047443 -44.0398 -0.1307829
      CHANNELS 3 Zrotation Xrotation Yrotation
      JOINT left_tibia_foot
      {
        OFFSET -4.370144 -48.10324 -4.275266
        CHANNELS 3 Zrotation Xrotation Yrotation
        End Site
        {
          OFFSET 0 -5 15
        }
      }
    }
  }
  JOINT pelvis_spine1
  {
    OFFSET 0 6.468898 -3.129235
    CHANNELS 3 Zrotation Xrotation Yrotation
    JOINT spine1
    {
      OFFSET 0 23.15396 4.99043
      CHANNELS 3 Zrotation Xrotation Yrotation
      JOINT spine2
      {
        OFFSET 0 20.79997 -5.064912
        CHANNELS 3 Zrotation Xrotation Yrotation
        JOINT neck
        {
          OFFSET 0 14.38658 9.616178
          CHANNELS 3 Zrotation Xrotation Yrotation
          End Site
          {
            OFFSET 0 20 0
          }
        }
      }
      JOINT right_manubrium
      {
        OFFSET -5.722621 16.35077 3.967754
        CHANNELS 3 Zrotation Xrotation Yrotation
        JOINT right_clavicle
        {
          OFFSET -13.16364 1.694482 -4.693211
          CHANNELS 3 Zrotation Xrotation Yrotation
          JOINT right_humerus
          {
            OFFSET -28.5034 -0.3100689 -2.792744
            CHANNELS 3 Zrotation Xrotation Yrotation
            JOINT right_radius
            {
              OFFSET -25.15693 0.02248979 -1.271978
              CHANNELS 3 Zrotation Xrotation Yrotation
              End Site
              {
                OFFSET -15 0 0
              }
            }
          }
        }
      }
      JOINT left_manubrium
      {
        OFFSET 5.722621 16.35077 3.967754
        CHANNELS 3 Zrotation Xrotation Yrotation
        JOINT left_clavicle
        {
          OFFSET 13.16364 1.694482 -4.693211
          CHANNELS 3 Zrotation Xrotation Yrotation
          JOINT left_humerus
          {
            OFFSET 29.39168 -1.063119 -2.237045
            CHANNELS 3 Zrotation Xrotation Yrotation
            JOINT left_radius
            {
              OFFSET 24.59957 -0.9528479 0.9047498
              CHANNELS 3 Zrotation Xrotation Yrotation
              End Site
              {
                OFFSET 15 -0 -0
              }
            }
          }
        }
      }
    }
  }
}
MOTION
Frames: 15
Frame Time: 0.0416666666667
0 103.5113 0 1.797961 -0.6732598 -0.05376023 3.251637 -13.30027 11.13875 -0 39.444 -0 -5.998566 -16.78252 -3.541874 -7.860194 9.227725 -22.94115 -0 7.731876 -0 16.07795 -12.40919 30.6824 -4.742073 -5.121565 5.272677 2.629805 10.57338 -7.76904 1.579451 22.32127 6.048821 2.106917 -24.82281 9.870777 6.434989 -20.32906 11.90086 86.69635 38.21836 -18.92968 -0 0 15.03943 -7.361314 9.626759 4.37238 5.301979 -19.60288 -1.004445 -91.70055 21.48858 19.80854 0 0 -14.41325 15.44993 15.87936 -3.805245
0.2244974 103.585 1.652378 1.389458 -0.2942751 -0.09951685 3.634173 -15.27315 10.73694 -0 39.20356 -0 -6.177561 -15.66507 -3.343416 -7.533805 9.179392 -22.32705 -0 7.303879 -0 15.38675 -13.18456 29.74299 -4.443168 -4.782616 5.118598 2.669936 10.60263 -7.926513 1.486402 21.97552 6.277565 2.303517 -24.99735 9.846512 6.538265 -20.24113 11.93997 86.48308 38.12919 -18.90888 -0 0 15.18787 -7.89106 9.945283 4.640284 5.56121 -19.92944 -0.9628125 -91.54614 21.07884 19.69734 0 0 -14.67031 15.42999 15.65551 -3.721307
0.5515287 103.4899 3.626011 0.754409 0.1137533 0.07203667 3.828095 -18.85478 9.329889 -0 38.13636 -0 -5.212025 -12.81861 -4.11625 -6.961164 9.524715 -20.18883 -0 5.743744 -0 9.902191 -16.69235 25.25091 -4.067811 -3.601113 4.574326 3.091164 10.34342 -8.905288 0.7959089 21.23893 6.992345 2.664714 -24.9577 9.060436 6.654011 -20.13354 12.06358 86.40077 36.86287 -20.35215 -0 0 15.29131 -9.510579 10.40638 6.228984 5.113684 -20.44933 -1.62856 -91.78083 25.64815 20.89196 0 0 -18.24104 7.014408 14.85656 6.425992
0.8707812 103.2156 5.71139 0.1799636 0.6057214 0.2663591 4.52143 -21.89741 8.929993 -0 35.79951 -0 -5.466437 -12.39019 -4.078538 -6.420131 10.36701 -19.92965 -0 5.020708 -0 7.64003 -18.53126 23.65114 -3.587236 -3.053514 4.247965 3.242202 9.907531 -9.054594 0.8035675 20.99888 7.060732 2.89528 -25.22158 8.900264 6.446139 -19.89758 11.8799 86.23427 35.81908 -20.60523 -0 0 15.53651 -8.932758 9.609953 6.107353 5.445559 -20.60904 -1.573734 -92.33835 27.01936 21.19395 0 0 -18.77865 5.28503 14.89477 8.496369
1.138643 102.7553 7.916078 -0.4982012 1.315336 0.4538771 5.545619 -25.38651 8.680144 -0 32.13929 -0 -6.108166 -12.18603 -3.879836 -5.771067 11.64774 -20.11847 -0 4.800559 -0 5.083778 -20.6318 22.10946 -2.999666 -2.52628 3.873282 3.416088 9.228325 -9.072194 0.9664956 20.84312 7.002371 3.191613 -25.7319 8.796469 6.123279 -19.5458 11.57283 86.11016 34.59791 -20.89277 -0 0 15.7037 -7.592689 8.254707 5.568285 5.896766 -20.65496 -1.391855 -93.40758 28.7885 21.76364 0 0 -18.98972 3.679006 15.36141 10.41639
1.38417 102.1335 10.49823 -1.11154 2.099186 0.7108753 6.316109 -28.91295 8.084336 -0 28.3321 -0 -6.469107 -10.44342 -3.671927 -5.196047 12.43755 -19.27339 -0 5.375581 -0 2.866051 -22.16645 20.0731 -2.517968 -1.942617 3.542525 3.548125 8.857484 -9.199001 1.054084 20.40693 7.14237 3.493056 -26.0867 8.782863 5.961121 -19.02667 11.38523 86.12192 34.08982 -21.23125 -0 0 15.43732 -7.775277 8.347751 5.592117 6.375372 -20.97527 -1.271049 -93.33053 29.01495 21.30142 0 0 -19.55498 3.081493 15.21545 11.12993
1.620174 101.3336 13.7158 -1.565256 2.83463 1.068737 6.777738 -32.1635 7.075322 -0 23.30114 -0 -6.472691 -7.524569 -3.524817 -4.75959 13.08622 -17.59252 -0 7.113554 -0 0.6746795 -23.27487 17.62921 -2.187074 -1.328342 3.276425 3.671267 8.673861 -9.373034 1.112673 19.78635 7.369066 3.814446 -26.23516 8.751651 5.839239 -18.29096 11.24455 86.29561 33.88783 -21.70375 -0 0 14.67552 -9.033607 9.384693 5.995946 6.90993 -21.45994 -1.232711 -92.375 28.13918 19.89731 0 0 -20.46255 3.041842 14.52021 11.04213
1.866149 100.3126 17.89036 -1.524681 3.120893 1.525724 6.440364 -34.02506 5.373272 -0 16.74203 -0 -5.66214 -3.330227 -3.664911 -4.706755 13.58143 -14.80958 -0 10.54135 -0 -1.296343 -23.56033 14.92228 -2.215422 -0.7811166 3.198038 3.732738 8.846207 -9.581876 1.092168 19.04438 7.615343 4.108971 -25.79654 8.508812 5.721016 -17.32684 11.17879 86.76531 33.7957 -22.43545 -0 0 13.20284 -11.73944 11.39751 7.010113 7.457751 -22.14714 -1.459481 -90.2783 25.81283 17.21991 0 0 -22.07298 3.441121 12.85151 10.16009
2.137101 99.03839 23.35408 -0.5528365 2.335829 2.056507 4.945905 -32.88608 3.038685 -0 8.996757 -0 -3.462357 1.695047 -4.48444 -5.293376 13.97397 -10.93428 -0 16.16181 -0 -2.709771 -22.51843 12.40526 -2.768094 -0.5298184 3.47763 3.606137 9.567451 -9.754123 0.9616983 18.39801 7.646952 4.26092 -24.264 7.744259 5.473997 -16.23938 11.19379 87.71004 33.1562 -23.5708 -0 0 10.92579 -15.79529 13.81374 8.692106 7.946952 -23.04172 -2.178839 -87.14913 21.90243 13.27967 0 0 -24.82216 4.037749 9.855772 8.717484
2.410963 97.61023 30.18285 1.282616 -0.01032593 2.689715 2.889844 -28.0747 1.273273 -0 3.114699 -0 0.04210112 5.461703 -6.298753 -6.263629 14.51026 -6.991452 -0 23.15036 -0 -3.40828 -19.91584 10.9009 -3.514529 -0.8335586 4.019098 3.121036 10.71749 -9.735234 0.8044856 18.32587 7.137469 4.054038 -21.44495 6.440841 4.847221 -15.28094 11.20371 89.09106 30.96513 -24.92262 -0 0 8.31921 -19.74559 15.33157 10.28879 8.208354 -23.90729 -3.381406 -83.80272 17.56253 8.910957 0 0 -28.4492 4.498144 6.213342 7.443185
2.548995 96.41796 37.77729 2.139442 -2.806806 3.261622 2.134381 -23.53306 1.608756 -0 3.923277 -0 1.957659 4.298269 -8.230611 -6.060368 16.146 -5.631573 -0 28.61965 -0 -4.528215 -16.73532 10.83455 -3.204996 -1.360255 3.797514 2.471752 11.01889 -9.380392 1.031822 19.35929 6.293015 3.290597 -18.77134 5.913051 3.756577 -14.22776 10.93326 90.45893 27.96737 -25.73476 -0 0 6.205062 -20.86151 15.49982 10.17006 7.857216 -23.89324 -4.225553 -81.56173 16.82531 5.606954 0 0 -30.4546 4.345575 5.253228 7.7187
2.309525 95.86788 45.16163 0.363045 -3.642054 3.142897 3.648943 -24.18416 3.189638 -0 9.109493 -0 -0.8398628 -2.292629 -9.161368 -3.760345 19.40314 -8.068987 -0 32.11624 -0 -6.83218 -14.3636 11.18828 -1.631728 -1.323313 2.034636 2.452465 9.298725 -8.947693 1.89368 21.24377 5.914017 2.131894 -18.3601 7.509481 2.922186 -12.20177 10.36893 91.65861 27.99849 -25.93232 -0 0 3.978133 -18.96394 16.33528 8.511645 6.512215 -22.60644 -3.820229 -80.60592 22.09339 3.323243 0 0 -29.12578 3.159517 9.341763 10.00758
1.664734 95.98418 52.08593 -1.453193 -3.618744 2.4583 5.418247 -25.4561 4.030024 -0 12.3811 -0 -4.86163 -8.839993 -9.863407 -1.85981 21.89468 -10.80649 -0 38.85077 -0 -8.430334 -12.59049 11.33974 -0.7608416 -0.8513325 0.4989034 2.876249 7.379515 -8.502464 2.854444 23.06848 5.528133 1.337615 -18.60673 9.079161 2.956843 -9.838618 9.929376 92.54066 30.35624 -25.74282 -0 0 1.441667 -16.26186 17.36568 6.764298 4.963364 -21.31568 -3.064279 -80.0055 27.63287 0.9206628 0 0 -26.82443 1.95835 14.02387 11.79532
0.9235499 96.80294 58.75851 -1.432721 -4.968511 1.522056 6.266983 -21.21283 4.25623 -0 14.98593 -0 -5.956619 -10.81018 -9.86048 -2.05768 19.40877 -10.80788 -0 50.55626 -0 -8.797925 -10.51349 12.2012 -0.9286536 -0.2738824 0.9304808 2.860752 7.427304 -7.736374 3.333498 23.98051 4.657463 1.436603 -17.73806 8.553281 3.662518 -9.247669 10.01275 91.73965 30.96081 -23.9838 -0 0 1.377639 -14.23372 16.12883 5.726732 4.132608 -20.56707 -2.950664 -81.05502 28.7376 1.304385 0 0 -23.85324 1.590839 14.94799 11.81639
0.3294736 98.28038 65.15764 -0.805412 -5.816043 0.5138299 6.920678 -13.69188 4.879859 -0 15.37812 -0 -5.222788 -9.080075 -8.572351 -2.713236 10.72057 -8.423831 -0 61.21517 -0 -8.59189 -8.115169 13.10784 -1.21188 0.2149138 2.94002 2.847425 9.159381 -7.408145 2.834921 23.42948 4.259126 2.195179 -17.78063 6.731584 4.804517 -11.30096 11.00025 89.35855 30.76778 -21.85049 -0 0 4.028923 -14.00881 14.16197 6.446924 3.547504 -20.61818 -3.131302 -83.85538 27.46065 6.308692 0 0 -22.20259 0.5293631 12.35788 13.12604
